<svg xmlns="http://www.w3.org/2000/svg" width="269" height="32" fill="none">
  <mask id="b" fill="#fff">
    <path fill-rule="evenodd" d="M16.53 0C7.402 0 0 7.163 0 16s7.401 16 16.53 16c3.381 0 6.525-.982 9.143-2.668A11.499 11.499 0 0 0 33.061 32V16c0-8.837-7.4-16-16.53-16Zm-3.65 22.579a.541.541 0 0 1-.55.532H9.987a.541.541 0 0 1-.55-.532v-9.5c0-.295.246-.533.55-.533h2.341c.304 0 .55.239.55.533v9.5Zm12.236.043c0 .27-.227.49-.506.49h-2.513a.498.498 0 0 1-.506-.49v-4.456l.003-.172c.015-.812.052-2.742-1.797-2.742-1.549 0-1.863 1.54-1.926 2.23v5.14c0 .27-.226.49-.506.49h-2.43a.498.498 0 0 1-.505-.49v-9.586c0-.27.226-.49.505-.49h2.43c.28 0 .506.22.506.49v.829c.574-.835 1.428-1.478 3.244-1.478 4 0 4 3.597 4 5.603v4.632ZM13.436 9.15c0 1.218-1.02 2.205-2.277 2.205-1.258 0-2.278-.987-2.278-2.205 0-1.217 1.02-2.204 2.278-2.204 1.257 0 2.277.987 2.277 2.204Z" clip-rule="evenodd" />
  </mask>
  <path fill="url(#a)" fill-rule="evenodd" d="M16.53 0C7.402 0 0 7.163 0 16s7.401 16 16.53 16c3.381 0 6.525-.982 9.143-2.668A11.499 11.499 0 0 0 33.061 32V16c0-8.837-7.4-16-16.53-16Zm-3.65 22.579a.541.541 0 0 1-.55.532H9.987a.541.541 0 0 1-.55-.532v-9.5c0-.295.246-.533.55-.533h2.341c.304 0 .55.239.55.533v9.5Zm12.236.043c0 .27-.227.49-.506.49h-2.513a.498.498 0 0 1-.506-.49v-4.456l.003-.172c.015-.812.052-2.742-1.797-2.742-1.549 0-1.863 1.54-1.926 2.23v5.14c0 .27-.226.49-.506.49h-2.43a.498.498 0 0 1-.505-.49v-9.586c0-.27.226-.49.505-.49h2.43c.28 0 .506.22.506.49v.829c.574-.835 1.428-1.478 3.244-1.478 4 0 4 3.597 4 5.603v4.632ZM13.436 9.15c0 1.218-1.02 2.205-2.277 2.205-1.258 0-2.278-.987-2.278-2.205 0-1.217 1.02-2.204 2.278-2.204 1.257 0 2.277.987 2.277 2.204Z" clip-rule="evenodd" />
  <path fill="#006399" fill-opacity=".21" d="m25.673 29.332.643-.766-.565-.473-.62.398.542.841ZM33.061 32v1h1v-1h-1Zm0-15.992h-1 1Zm0-.008h1-1Zm-11.467 1.994 1 .02-1-.02Zm-3.723-.512-.996-.091-.004.045v.046h1Zm0-3.617h-1v3.216l1.824-2.65-.824-.566Zm7.245 4.125h-1 1ZM11.159 6.946v-1 1ZM1 16C1 7.746 7.922 1 16.53 1v-2C6.88-1-1 6.58-1 16h2Zm15.53 15C7.923 31 1 24.254 1 16h-2c0 9.42 7.88 17 17.53 17v-2Zm8.602-2.509A15.845 15.845 0 0 1 16.53 31v2c3.576 0 6.907-1.04 9.683-2.827l-1.082-1.681ZM33.062 31c-2.526 0-4.909-.893-6.746-2.434L25.03 30.1A12.499 12.499 0 0 0 33.061 33v-2Zm-1-14.992V32h2V16.008h-2Zm0-.008v.008h2V16h-2ZM16.53 1c8.608 0 15.53 6.746 15.53 15h2c0-9.42-7.88-17-17.53-17v2Zm-4.202 23.111c.825 0 1.55-.655 1.55-1.532h-2c0-.289.233-.468.45-.468v2Zm-2.341 0h2.341v-2H9.988v2Zm-1.55-1.532c0 .877.725 1.532 1.55 1.532v-2c.217 0 .45.179.45.468h-2Zm0-9.5v9.5h2v-9.5h-2Zm1.55-1.533c-.825 0-1.55.656-1.55 1.533h2a.459.459 0 0 1-.45.467v-2Zm2.341 0H9.988v2h2.341v-2Zm1.55 1.533c0-.877-.725-1.533-1.55-1.533v2a.459.459 0 0 1-.45-.467h2Zm0 9.5v-9.5h-2v9.5h2Zm10.73 1.532c.801 0 1.507-.636 1.507-1.49h-2c0-.312.252-.51.494-.51v2Zm-2.512 0h2.513v-2h-2.513v2Zm-1.506-1.49c0 .854.706 1.49 1.506 1.49v-2c.242 0 .494.198.494.51h-2Zm0-4.455v4.456h2v-4.456h-2Zm.003-.19-.003.19h2l.003-.153-2-.038Zm-.797-1.723c.28 0 .403.069.46.112.066.05.139.139.202.306.142.377.143.87.135 1.304l2 .038c.007-.378.034-1.256-.264-2.047a2.64 2.64 0 0 0-.868-1.197c-.455-.345-1.02-.517-1.665-.517v2Zm-.93 1.32c.026-.29.102-.672.27-.954a.764.764 0 0 1 .244-.267c.079-.05.203-.1.416-.1v-2c-1.188 0-1.953.627-2.38 1.345-.392.66-.505 1.393-.542 1.794l1.992.182Zm.004 5.049v-5.14h-2v5.14h2Zm-1.506 1.49c.801 0 1.506-.637 1.506-1.49h-2c0-.313.252-.51.494-.51v2Zm-2.43 0h2.43v-2h-2.43v2Zm-1.505-1.49c0 .853.705 1.49 1.505 1.49v-2c.242 0 .495.197.495.51h-2Zm0-9.586v9.586h2v-9.586h-2Zm1.505-1.49c-.8 0-1.505.637-1.505 1.49h2c0 .312-.253.51-.495.51v-2Zm2.43 0h-2.43v2h2.43v-2Zm1.506 1.49c0-.853-.705-1.49-1.506-1.49v2a.502.502 0 0 1-.494-.51h2Zm0 .829v-.83h-2v.83h2Zm2.244-2.478c-1.026 0-1.86.182-2.547.538-.694.36-1.166.858-1.52 1.372l1.647 1.135c.22-.32.461-.56.792-.731.337-.175.838-.314 1.628-.314v-2Zm5 6.603c0-.962.015-2.58-.582-3.953-.31-.714-.799-1.397-1.557-1.893-.757-.497-1.708-.757-2.86-.757v2c.847 0 1.396.189 1.764.43.367.24.63.582.819 1.018.402.926.417 2.111.417 3.155h2Zm0 .034v-.034h-2v.034h2Zm0 4.598v-4.598h-2v4.598h2ZM11.16 12.355c1.779 0 3.277-1.404 3.277-3.205h-2c0 .635-.54 1.205-1.277 1.205v2ZM7.88 9.15c0 1.8 1.498 3.205 3.278 3.205v-2c-.737 0-1.278-.57-1.278-1.205h-2Zm3.278-3.204c-1.78 0-3.278 1.404-3.278 3.204h2c0-.634.541-1.204 1.278-1.204v-2Zm3.277 3.204c0-1.8-1.498-3.204-3.277-3.204v2c.736 0 1.277.57 1.277 1.204h2Z" mask="url(#b)" />
  <path fill="#015C8E" d="M43.224 26V8.432h7.68c.72 0 1.36.096 1.92.288.56.176 1.056.472 1.488.888.448.4.792.968 1.032 1.704.24.72.36 1.584.36 2.592 0 .832-.072 1.56-.216 2.184-.144.624-.304 1.104-.48 1.44-.176.32-.416.608-.72.864-.304.24-.536.392-.696.456-.16.064-.392.144-.696.24L56.232 26H52.44l-2.904-6.648-2.952-.336V26h-3.36Zm3.384-9.624h3.984c.32 0 .576-.024.768-.072.192-.064.36-.184.504-.36.16-.176.272-.424.336-.744.08-.336.12-.768.12-1.296 0-.944-.144-1.592-.432-1.944-.288-.368-.72-.552-1.296-.552h-3.984v4.968ZM57.466 19.568c0-1.104.064-2.024.192-2.76.144-.752.344-1.368.6-1.848a2.63 2.63 0 0 1 1.08-1.128 4.85 4.85 0 0 1 1.536-.528c.576-.096 1.296-.144 2.16-.144a18.8 18.8 0 0 1 1.464.048c.4.016.8.064 1.2.144.416.064.752.168 1.008.312.256.128.504.312.744.552a2.2 2.2 0 0 1 .552.84c.144.32.248.712.312 1.176.08.448.12.968.12 1.56 0 1.12-.296 1.936-.888 2.448-.592.512-1.48.768-2.664.768h-4.056c0 .736.104 1.288.312 1.656.224.352.496.568.816.648.336.08.856.12 1.56.12 1.968 0 3.528-.088 4.68-.264v2.28c-1.2.448-3.376.672-6.528.672-.816 0-1.496-.12-2.04-.36-.528-.24-.952-.632-1.272-1.176-.32-.544-.552-1.216-.696-2.016-.128-.8-.192-1.8-.192-3Zm3.36-.984h3.192c.704 0 1.056-.32 1.056-.96 0-.8-.112-1.312-.336-1.536-.208-.24-.712-.36-1.512-.36-.512 0-.896.024-1.152.072-.24.032-.48.144-.72.336-.224.176-.376.456-.456.84-.064.384-.088.92-.072 1.608ZM70.076 19.616c0-1.28.096-2.352.288-3.216.207-.88.504-1.544.887-1.992.4-.464.84-.792 1.32-.984.48-.192 1.049-.288 1.704-.288 2.352 0 4.304.248 5.856.744v2.088a70.104 70.104 0 0 0-4.415-.144c-.384 0-.672.016-.864.048a1.949 1.949 0 0 0-.6.24 1.07 1.07 0 0 0-.48.6c-.097.272-.177.648-.24 1.128-.064.48-.096 1.096-.096 1.848 0 1.088.071 1.896.215 2.424.16.528.385.88.672 1.056.305.16.769.24 1.393.24.656 0 1.368-.016 2.136-.048a27.774 27.774 0 0 0 1.8-.12l.647-.048v2.112a9.091 9.091 0 0 1-1.08.456 6.791 6.791 0 0 1-1.343.24c-.513.048-.88.08-1.105.096-.207.016-.656.024-1.344.024h-1.152c-1.824 0-3.04-.832-3.648-2.496-.367-1.008-.551-2.344-.551-4.008ZM82.127 26V13.256h2.832l.528 1.608c1.2-1.152 2.416-1.728 3.648-1.728.688 0 1.16.048 1.416.144v3.24a18.346 18.346 0 0 0-1.848-.072c-.752 0-1.384.104-1.896.312-.496.192-.936.56-1.32 1.104V26h-3.36ZM91.943 21.728v-8.472h3.36V21.8c0 1.136.472 1.704 1.416 1.704.432 0 .824-.04 1.176-.12.352-.08.664-.192.936-.336.288-.16.608-.376.96-.648v-9.144h3.36V26h-2.712l-.648-1.344c-.144.08-.376.224-.696.432-.32.208-.568.36-.744.456-.16.096-.392.208-.696.336a3.536 3.536 0 0 1-.888.264 6.664 6.664 0 0 1-1.032.072c-2.528 0-3.792-1.496-3.792-4.488ZM105.138 11.36V9.248c0-.416.192-.624.576-.624h2.52c.352 0 .528.208.528.624v2.112c0 .176-.048.312-.144.408-.08.096-.208.144-.384.144h-2.52a.98.98 0 0 1-.312-.048.552.552 0 0 1-.192-.192.688.688 0 0 1-.072-.312Zm.12 14.64V13.256h3.36V26h-3.36ZM110.048 15.8v-1.872l2.064-.696.551-3.552h2.808v3.552h2.856V15.8h-2.856v5.112c0 .592.049 1.072.145 1.44.096.352.216.6.36.744.143.128.336.24.575.336.96.336 1.497.504 1.609.504V26h-2.929c-.991 0-1.76-.352-2.304-1.056-.544-.72-.815-1.888-.815-3.504V15.8h-2.064ZM119.716 19.568c0-1.104.064-2.024.192-2.76.144-.752.344-1.368.6-1.848a2.63 2.63 0 0 1 1.08-1.128 4.85 4.85 0 0 1 1.536-.528c.576-.096 1.296-.144 2.16-.144a18.8 18.8 0 0 1 1.464.048c.4.016.8.064 1.2.144.416.064.752.168 1.008.312.256.128.504.312.744.552a2.2 2.2 0 0 1 .552.84c.144.32.248.712.312 1.176.08.448.12.968.12 1.56 0 1.12-.296 1.936-.888 2.448-.592.512-1.48.768-2.664.768h-4.056c0 .736.104 1.288.312 1.656.224.352.496.568.816.648.336.08.856.12 1.56.12 1.968 0 3.528-.088 4.68-.264v2.28c-1.2.448-3.376.672-6.528.672-.816 0-1.496-.12-2.04-.36-.528-.24-.952-.632-1.272-1.176-.32-.544-.552-1.216-.696-2.016-.128-.8-.192-1.8-.192-3Zm3.36-.984h3.192c.704 0 1.056-.32 1.056-.96 0-.8-.112-1.312-.336-1.536-.208-.24-.712-.36-1.512-.36-.512 0-.896.024-1.152.072-.24.032-.48.144-.72.336-.224.176-.376.456-.456.84-.064.384-.088.92-.072 1.608ZM132.518 26V13.256h2.832l.528 1.608c1.199-1.152 2.415-1.728 3.647-1.728.689 0 1.161.048 1.416.144v3.24a18.332 18.332 0 0 0-1.848-.072c-.752 0-1.383.104-1.895.312-.497.192-.936.56-1.32 1.104V26h-3.36ZM142.885 10.976V8.84c0-.144.024-.264.072-.36a.457.457 0 0 1 .216-.24.742.742 0 0 1 .336-.072h2.064c.4 0 .6.224.6.672v3.192c0 1.376-.68 2.128-2.04 2.256-.4.032-.776.008-1.128-.072v-1.32c.128 0 .232-.008.312-.024a.547.547 0 0 0 .216-.12.611.611 0 0 0 .144-.144.533.533 0 0 0 .072-.168c.016-.08.024-.136.024-.168a.532.532 0 0 0 .024-.168v-.48h-.288a.67.67 0 0 1-.456-.168c-.112-.112-.168-.272-.168-.48ZM148.376 17.672v-1.104c0-2.288 1.104-3.432 3.312-3.432 3.792 0 6.064.216 6.816.648v2.112h-5.784c-.208 0-.384.016-.528.048a.514.514 0 0 0-.288.168.85.85 0 0 0-.144.264 2.641 2.641 0 0 0-.024.408v.576c0 .368.08.6.24.696.16.08.408.12.744.12h3.024c.592 0 1.104.088 1.536.264.448.16.8.392 1.056.696.272.304.472.656.6 1.056.128.384.192.808.192 1.272v1.32c0 1.92-.808 3.016-2.424 3.288a4.918 4.918 0 0 1-.696.048c-4.032 0-6.4-.232-7.104-.696v-2.088h6.024c.56 0 .84-.272.84-.816v-.6c0-.192-.024-.344-.072-.456a.429.429 0 0 0-.24-.264c-.128-.064-.304-.096-.528-.096h-2.976c-1.168 0-2.056-.272-2.664-.816-.608-.544-.912-1.416-.912-2.616ZM168.728 26l6.456-17.568h1.776L183.128 26h-2.112l-1.512-4.896h-7.008L170.912 26h-2.184Zm4.416-6.672h5.736l-2.832-8.184-2.904 8.184ZM184.687 17.408v-1.104c0-1.04.256-1.824.768-2.352.512-.544 1.36-.816 2.544-.816 1.52 0 3.608.128 6.264.384v1.368h-6.264c-.368 0-.664.032-.888.096-.224.064-.384.176-.48.336a1.14 1.14 0 0 0-.144.408 5.06 5.06 0 0 0-.024.576v1.104c0 .32.032.576.096.768.08.192.2.328.36.408.16.08.312.136.456.168.144.016.352.024.624.024h3.792c1.008 0 1.776.288 2.304.864.544.56.816 1.304.816 2.232v1.176c0 1.184-.288 1.992-.864 2.424-.576.432-1.328.648-2.256.648-1.488 0-3.68-.152-6.576-.456v-1.32h6.672c.112 0 .224-.008.336-.024.112-.032.24-.088.384-.168a.87.87 0 0 0 .384-.408c.096-.192.144-.424.144-.696v-1.176c0-.448-.104-.776-.312-.984-.192-.224-.536-.336-1.032-.336h-3.792c-1.168 0-2.016-.224-2.544-.672-.512-.448-.768-1.272-.768-2.472ZM196.827 17.408v-1.104c0-1.04.256-1.824.768-2.352.512-.544 1.36-.816 2.544-.816 1.52 0 3.608.128 6.264.384v1.368h-6.264c-.368 0-.664.032-.888.096-.224.064-.384.176-.48.336a1.14 1.14 0 0 0-.144.408 5.06 5.06 0 0 0-.024.576v1.104c0 .32.032.576.096.768.08.192.2.328.36.408.16.08.312.136.456.168.144.016.352.024.624.024h3.792c1.008 0 1.776.288 2.304.864.544.56.816 1.304.816 2.232v1.176c0 1.184-.288 1.992-.864 2.424-.576.432-1.328.648-2.256.648-1.488 0-3.68-.152-6.576-.456v-1.32h6.672c.112 0 .224-.008.336-.024.112-.032.24-.088.384-.168a.87.87 0 0 0 .384-.408c.096-.192.144-.424.144-.696v-1.176c0-.448-.104-.776-.312-.984-.192-.224-.536-.336-1.032-.336h-3.792c-1.168 0-2.016-.224-2.544-.672-.512-.448-.768-1.272-.768-2.472ZM209.208 11.192V9.896c0-.4.192-.6.576-.6h1.2c.368 0 .552.2.552.6v1.296c0 .368-.184.552-.552.552h-1.2c-.384 0-.576-.184-.576-.552Zm.24 14.808V13.256h1.776V26h-1.776ZM213.702 17.408v-1.104c0-1.04.256-1.824.768-2.352.512-.544 1.36-.816 2.544-.816 1.52 0 3.608.128 6.264.384v1.368h-6.264c-.368 0-.664.032-.888.096-.224.064-.384.176-.48.336a1.14 1.14 0 0 0-.144.408 5.06 5.06 0 0 0-.024.576v1.104c0 .32.032.576.096.768.08.192.2.328.36.408.16.08.312.136.456.168.144.016.352.024.624.024h3.792c1.008 0 1.776.288 2.304.864.544.56.816 1.304.816 2.232v1.176c0 1.184-.288 1.992-.864 2.424-.576.432-1.328.648-2.256.648-1.488 0-3.68-.152-6.576-.456v-1.32h6.672c.112 0 .224-.008.336-.024.112-.032.24-.088.384-.168a.87.87 0 0 0 .384-.408c.096-.192.144-.424.144-.696v-1.176c0-.448-.104-.776-.312-.984-.192-.224-.536-.336-1.032-.336h-3.792c-1.168 0-2.016-.224-2.544-.672-.512-.448-.768-1.272-.768-2.472ZM225.363 15.008v-1.344l2.376-.432.432-3.552h1.344v3.552h3.72v1.776h-3.72v6.432c0 .976.112 1.656.336 2.04.224.368.568.608 1.032.72 1.312.336 2.024.504 2.136.504v1.272h-2.112c-2.112 0-3.168-1.512-3.168-4.536v-6.432h-2.376ZM234.913 22.976v-1.464c0-.976.28-1.752.84-2.328.576-.576 1.36-.864 2.352-.864h5.328v-1.608c0-1.312-.656-1.968-1.968-1.968-1.44 0-3.488.096-6.144.288v-1.296c1.616-.448 3.688-.688 6.216-.72h.072c1.056 0 1.92.312 2.592.936.672.608 1.008 1.528 1.008 2.76V26h-1.32l-.456-1.536-.36.168c-.224.112-.528.256-.912.432-.384.16-.8.328-1.248.504-.448.16-.928.296-1.44.408a6.482 6.482 0 0 1-1.368.168c-.912 0-1.672-.28-2.28-.84-.608-.56-.912-1.336-.912-2.328Zm1.776-.12c0 1.008.472 1.512 1.416 1.512.576 0 1.304-.104 2.184-.312a30.775 30.775 0 0 0 2.256-.6l.888-.312v-3.432l-5.328.384c-.48.048-.84.216-1.08.504-.224.288-.336.64-.336 1.056v1.2ZM247.838 26V13.256h1.248l.528 1.488c.048-.016.224-.112.528-.288.304-.192.488-.304.552-.336.08-.032.256-.12.528-.264.272-.16.464-.256.576-.288.112-.032.296-.096.552-.192a4.25 4.25 0 0 1 .624-.192c.176-.032.384-.064.624-.096s.48-.048.72-.048c1.216 0 2.176.4 2.88 1.2.704.8 1.056 1.76 1.056 2.88V26h-1.776v-8.88c0-.752-.2-1.32-.6-1.704-.4-.4-.92-.6-1.56-.6-.608 0-1.184.064-1.728.192a8.217 8.217 0 0 0-1.32.408c-.32.128-.872.384-1.656.768V26h-1.776ZM259.933 15.008v-1.344l2.376-.432.432-3.552h1.344v3.552h3.72v1.776h-3.72v6.432c0 .976.112 1.656.336 2.04.224.368.568.608 1.032.72 1.312.336 2.024.504 2.136.504v1.272h-2.112c-2.112 0-3.168-1.512-3.168-4.536v-6.432h-2.376Z" />
  <defs>
    <radialGradient id="a" cx="0" cy="0" r="1" gradientTransform="matrix(21.88747 22.85804 -22.90253 21.93008 11.174 9.142)" gradientUnits="userSpaceOnUse">
      <stop stop-color="#0077B7" />
      <stop offset="1" stop-color="#00466B" />
    </radialGradient>
  </defs>
</svg>
