<svg xmlns="http://www.w3.org/2000/svg" width="142" height="142" fill="none">
  <path fill="#fff" stroke="#A9C7ED" stroke-width="3" d="m72.5 31.5-46 23.733V82.5h92V55.233L72.5 31.5Z" />
  <rect width="61" height="60" x="42" y="23" fill="#fff" stroke="#A9C7ED" stroke-width="3" rx="3.5" />
  <path fill="#EEF4FB" d="M47.5 33.5a5 5 0 0 1 5-5h49v51a5 5 0 0 1-5 5h-44a5 5 0 0 1-5-5v-46Z" />
  <circle cx="59.5" cy="39.5" r="4" fill="#A9C7ED" />
  <circle cx="86.5" cy="39.5" r="4" fill="#A9C7ED" />
  <path stroke="#A9C7ED" stroke-linecap="round" stroke-linejoin="round" stroke-width="3" d="M67.5 57.5a7.246 7.246 0 0 1 10 0" />
  <path fill="#fff" stroke="#A9C7ED" stroke-width="3" d="M26.5 115.5V55.134a1 1 0 0 1 1.455-.89l44.09 22.524a1 1 0 0 0 .91 0l44.09-22.525a1 1 0 0 1 1.455.89V115.5a1 1 0 0 1-1 1h-90a1 1 0 0 1-1-1Z" />
  <path fill="#A9C7ED" d="M47.686 99.276c0 .187-.462.28-1.386.28-.924 0-1.386-.093-1.386-.28v-7.028h-1.68c-.158 0-.27-.215-.336-.644a4.657 4.657 0 0 1 0-1.26c.066-.43.178-.644.336-.644h6.09c.16 0 .271.215.336.644a4.657 4.657 0 0 1 0 1.26c-.065.43-.177.644-.336.644h-1.638v7.028ZM55.23 99.122c-.588.345-1.344.518-2.268.518-.924 0-1.704-.313-2.338-.938-.635-.635-.952-1.507-.952-2.618 0-1.12.303-2.02.91-2.702.616-.681 1.39-1.022 2.324-1.022.933 0 1.652.238 2.156.714.513.476.77 1.055.77 1.736 0 1.512-.868 2.268-2.604 2.268h-.966c0 .28.074.476.224.588.158.103.387.154.686.154.653 0 1.274-.15 1.862-.448.009-.01.05.056.126.196.224.401.336.742.336 1.022 0 .27-.09.448-.266.532Zm-1.75-4.046c0-.392-.192-.588-.574-.588a.687.687 0 0 0-.462.168c-.122.103-.182.257-.182.462v.434h.756c.308 0 .462-.159.462-.476ZM63.088 99.43c0 .065-.401.098-1.204.098-.793 0-1.19-.042-1.19-.126v-4.074c0-.467-.154-.7-.462-.7-.158 0-.368.103-.63.308v4.48c0 .093-.401.14-1.204.14-.793 0-1.19-.051-1.19-.154v-4.578h-.35c-.308 0-.462-.322-.462-.966 0-.29.056-.583.168-.882.15-.41.392-.616.728-.616.336 0 .658.089.966.266.317.177.509.345.574.504.579-.513 1.218-.77 1.918-.77.71 0 1.279.22 1.708.658.504-.439 1.11-.658 1.82-.658 1.54 0 2.31.938 2.31 2.814v4.256c0 .065-.401.098-1.204.098-.793 0-1.19-.042-1.19-.126v-4.074c0-.467-.154-.7-.462-.7-.168 0-.383.103-.644.308v4.494ZM70.79 102.048c0 .065-.402.098-1.205.098-.793 0-1.19-.033-1.19-.098v-7.21h-.476c-.224 0-.378-.205-.462-.616a2.478 2.478 0 0 1-.042-.504c0-.205.066-.448.196-.728.187-.41.486-.616.896-.616.271 0 .518.065.742.196.234.121.392.238.476.35.094.103.14.163.14.182.626-.485 1.302-.728 2.03-.728.728 0 1.354.285 1.876.854.523.56.784 1.433.784 2.618 0 1.176-.26 2.09-.784 2.744-.522.644-1.185.966-1.988.966-.364 0-.695-.019-.994-.056v2.548Zm.573-7.224a.805.805 0 0 0-.462.154v2.478c.16.019.285.028.378.028h.238c.383-.037.574-.527.574-1.47 0-.793-.242-1.19-.728-1.19ZM78.093 99.388c0 .084-.476.126-1.428.126-.747-.01-1.12-.047-1.12-.112v-9.534c0-.14.453-.21 1.358-.21.793.028 1.19.075 1.19.14v9.59ZM80.242 94.418c-.262-.467-.392-.845-.392-1.134 0-.299.079-.49.238-.574.532-.233 1.26-.35 2.184-.35.933 0 1.59.22 1.974.658.382.43.574 1.069.574 1.918v2.212h.476c.158 0 .28.093.363.28.094.187.14.443.14.77s-.084.649-.252.966c-.158.317-.377.476-.657.476-.505 0-.91-.135-1.219-.406a1.13 1.13 0 0 1-.322-.406c-.429.541-1.096.812-2.002.812a2.295 2.295 0 0 1-1.721-.728 2.401 2.401 0 0 1-.7-1.722c0-1.521.91-2.282 2.73-2.282h.77v-.14c0-.243-.043-.397-.127-.462-.074-.075-.256-.112-.546-.112-.354 0-.858.075-1.511.224Zm1.12 2.576c0 .205.056.364.168.476a.598.598 0 0 0 .42.154c.177 0 .335-.07.475-.21v-1.078h-.391c-.449 0-.672.22-.672.658ZM89.812 99.416c0 .112-.392.168-1.176.168-.933-.037-1.4-.098-1.4-.182v-4.956h-.714c-.187 0-.28-.322-.28-.966 0-.168.014-.373.042-.616.037-.243.107-.364.21-.364h.742v-1.232c0-.187.392-.28 1.176-.28.793 0 1.19.075 1.19.224v.896l.014.392h1.19c.159 0 .238.327.238.98s-.08.98-.238.98h-.994v4.956ZM97.038 99.122c-.588.345-1.344.518-2.268.518-.924 0-1.703-.313-2.338-.938-.635-.635-.952-1.507-.952-2.618 0-1.12.303-2.02.91-2.702.616-.681 1.39-1.022 2.324-1.022.933 0 1.652.238 2.156.714.513.476.77 1.055.77 1.736 0 1.512-.868 2.268-2.604 2.268h-.966c0 .28.075.476.224.588.159.103.388.154.686.154.653 0 1.274-.15 1.862-.448.01-.01.052.056.126.196.224.401.336.742.336 1.022 0 .27-.088.448-.266.532Zm-1.75-4.046c0-.392-.191-.588-.574-.588a.687.687 0 0 0-.462.168c-.121.103-.182.257-.182.462v.434h.756c.308 0 .462-.159.462-.476ZM98.849 96.98c.756.457 1.353.686 1.792.686.28 0 .42-.098.42-.294 0-.14-.243-.322-.728-.546-1.167-.476-1.75-1.255-1.75-2.338 0-.69.252-1.218.756-1.582.504-.364 1.106-.546 1.806-.546.709 0 1.306.075 1.792.224.494.15.742.345.742.588 0 .205-.103.476-.308.812-.196.336-.332.518-.406.546a2.632 2.632 0 0 0-1.302-.336c-.252 0-.378.089-.378.266 0 .112.046.21.14.294.102.075.284.173.546.294.261.112.476.215.644.308.177.093.373.224.588.392.448.355.672.817.672 1.386 0 .747-.248 1.353-.742 1.82-.495.457-1.242.686-2.24.686a4.68 4.68 0 0 1-1.806-.336c-.541-.224-.812-.532-.812-.924 0-.261.06-.537.182-.826.13-.29.261-.48.392-.574Z" />
  <circle cx="124" cy="34" r="4" stroke="#EEF4FB" stroke-width="3" />
  <path stroke="#A9C7ED" stroke-width="3" d="M25.244 28.081a.5.5 0 0 1 .611.613l-2.166 8.052a.5.5 0 0 1-.837.223l-5.89-5.902a.5.5 0 0 1 .226-.836l8.056-2.15Z" />
  <path stroke="#EEF4FB" stroke-width="3" d="M3.3 82.371a.5.5 0 0 1 .657-.564l7.868 2.758a.5.5 0 0 1 .16.851l-6.322 5.435a.5.5 0 0 1-.818-.286L3.3 82.37Z" />
  <path stroke="#A9C7ED" stroke-linecap="round" stroke-linejoin="round" stroke-width="3" d="M132.672 87.672 135.5 90.5m2.829 2.828L135.5 90.5m0 0-2.828 2.828M135.5 90.5l2.829-2.828M115.086 131.086l3.586 3.586m3.585 3.585-3.585-3.585m0 0-3.586 3.585m3.586-3.585 3.585-3.586" />
  <circle cx="50" cy="131" r="4" stroke="#A9C7ED" stroke-width="3" />
  <path stroke="#A9C7ED" stroke-linecap="round" stroke-linejoin="round" stroke-width="3" d="M72 6V2M49.549 12.951l2.975 1.717M83.951 8.024l1.717-2.975M58.549 5.049l1.717 2.975M91.049 14.668l2.975-1.717" />
</svg>
