<svg width="141" height="141" fill="none" xmlns="http://www.w3.org/2000/svg"><circle cx="20.5" cy="34.5" r="4" stroke="#EEF4FB" stroke-width="3"/><path d="m129.355 44.194-2.166 8.052a.5.5 0 0 1-.837.223l-5.89-5.902a.5.5 0 0 1 .225-.836l8.056-2.15a.5.5 0 0 1 .612.613z" stroke="#A9C7ED" stroke-width="3"/><path d="m24.75 117.381 7.22-4.169a.5.5 0 0 1 .75.433v8.338a.5.5 0 0 1-.75.433l-7.22-4.169a.5.5 0 0 1 0-.866z" stroke="#EEF4FB" stroke-width="3"/><path d="m126.767 85.344 1.344 3.768m1.344 3.767-1.344-3.767m0 0-3.767 1.344m3.767-1.344 3.768-1.344M85.215 123.923l4.923 1.215m4.923 1.215-4.923-1.215m0 0-1.215 4.924m1.215-4.924 1.215-4.923" stroke="#A9C7ED" stroke-width="3" stroke-linecap="round" stroke-linejoin="round"/><circle cx="9.5" cy="76.5" r="4" stroke="#A9C7ED" stroke-width="3"/><path d="M67 5V3h6v4l-3 2v1m0 4.5V14M39.049 20.465l4.184 2.416M83.367 17.733l2.415-4.184M54.049 13.549l2.416 4.184M96.331 22.867l4.184-2.416" stroke="#A9C7ED" stroke-width="3" stroke-linecap="round" stroke-linejoin="round"/><mask id="a" style="mask-type:alpha" maskUnits="userSpaceOnUse" x="28" y="26" width="85" height="85"><path d="M70.5 28C48.133 28 30 46.133 30 68.5 30 90.868 48.133 109 70.5 109a40.308 40.308 0 0 0 22.399-6.753A27.628 27.628 0 0 0 111 109V68.5C111 46.133 92.868 28 70.5 28z" fill="#EEF4FB" stroke="#000" stroke-width="3"/></mask><g mask="url(#a)"><path d="M70.5 28C48.133 28 30 46.133 30 68.5 30 90.868 48.133 109 70.5 109a40.308 40.308 0 0 0 22.399-6.753A27.628 27.628 0 0 0 111 109V68.5C111 46.133 92.868 28 70.5 28z" fill="#fff" stroke="#EEF4FB" stroke-width="3"/><path d="M88.05 33.4c-24.604 0-44.55 19.946-44.55 44.55 0 24.604 19.946 44.55 44.55 44.55 9.11 0 17.582-2.735 24.639-7.428A30.39 30.39 0 0 0 132.6 122.5V77.95c0-24.604-19.946-44.55-44.55-44.55z" fill="#EEF4FB"/><path fill-rule="evenodd" clip-rule="evenodd" d="M86.671 53.68a6.948 6.948 0 0 0-5.16.252 1 1 0 0 1-.828-1.82 8.949 8.949 0 0 1 11.67 4.022 1 1 0 0 1-1.773.925 6.949 6.949 0 0 0-3.909-3.379zM58.678 72.132a4.388 4.388 0 1 1-8.775 0 4.388 4.388 0 0 1 8.775 0zm29.617 0a4.388 4.388 0 1 1-8.775 0 4.388 4.388 0 0 1 8.775 0zm-24.541 20.47a6.948 6.948 0 0 1 9.594 0 1 1 0 1 0 1.375-1.451 8.948 8.948 0 0 0-12.345 0 1 1 0 1 0 1.376 1.452zM47.159 58.618a6.949 6.949 0 0 1 8.309-4.797 1 1 0 0 0 .465-1.945 8.949 8.949 0 0 0-10.69 6.172 1 1 0 0 0 1.916.57z" fill="#A9C7ED"/></g><path fill-rule="evenodd" clip-rule="evenodd" d="M70.5 29.5c-21.54 0-39 17.46-39 39s17.46 39 39 39a38.81 38.81 0 0 0 21.568-6.502l.95-.632.863.748a26.132 26.132 0 0 0 15.619 6.343V68.5c0-21.54-17.46-39-39-39zm-42 39c0-23.196 18.804-42 42-42s42 18.804 42 42v42H111a29.128 29.128 0 0 1-18.213-6.394A41.816 41.816 0 0 1 70.5 110.5c-23.196 0-42-18.804-42-42z" fill="#A9C7ED"/>
</svg>
