<svg xmlns="http://www.w3.org/2000/svg" width="24" height="24" version="1.0" viewBox="0 0 512 512">
  <g fill="#504F5F">
    <path d="M134.5 16.4c-1.6.7-4 2.4-5.2 3.7-1.2 1.4-12.2 26.5-24.4 55.9-12.1 29.4-22.6 54.4-23.1 55.4-.6 1.1-18.3 22.7-39.3 48.1-21.1 25.4-39.2 47.7-40.4 49.6C1 231 0 233.8 0 235.4c0 3.9 42.7 154.2 44.9 158.1 2.3 4.1 7.2 6.7 12.6 6.7 4.1 0 10.9-3.6 72.3-37.7 37.2-20.8 69.2-38.7 71-39.9 6.7-4.2 6.6-3.7 12.7-70.7l5.7-61.4 22.9-55.6C258.9 94.1 265 78.2 265 75.3c0-4.7-3.1-9.9-7.5-12.4C251 59.1 143 15 140.3 15c-1.5.1-4.1.7-5.8 1.4zm56.3 50.8c21.5 9 39.2 16.7 39.2 17.3 0 .9-32.8 80.6-33.4 81.2-.6.7-82.1-33.7-81.9-34.5.1-.5 6.3-15.7 13.8-33.8 7.5-18.1 15-36.2 16.7-40.2 2.4-5.7 3.4-7.2 4.7-6.7.9.3 19.3 7.8 40.9 16.7zm-36.6 113.9 34.8 14.3-.5 3.6c-.3 1.9-2.6 25.5-5.1 52.5-2.5 26.9-4.6 49-4.7 49.2-.8.7-90.1 50.3-90.3 50.1-.1-.2 7.6-19.2 17.2-42.3 23.7-57.1 22.8-54.7 22-58.9-1.5-7.8-10.2-13.7-18-12.2-7.5 1.4-8.6 3.5-29.6 54.3-10.7 26-19.7 46.9-20.1 46.5-1.3-1.4-28-97.5-27.5-98.9.3-.7 15.4-19.3 33.6-41.2l33.1-39.9 10.2 4.2c5.6 2.4 25.8 10.7 44.9 18.7zM323.5 275.6c-11.9 2.6-22.7 8.5-31.4 17.3-15.5 15.5-21.8 35.6-17.7 56.1 4.7 22.9 20.1 40.8 41.5 48 3.6 1.2 11.7 2.7 18.2 3.4 13.8 1.5 19.2 3.8 26.1 10.8 9.1 9.4 11.6 24.4 5.9 36.3-3.2 6.9-10 13.7-16.9 16.8l-4.7 2.2-167 .5c-157.4.5-167.2.6-170.2 2.3-3.8 2-7.3 8.2-7.3 12.8 0 4.5 3.6 10.3 8 12.8l3.8 2.1h165.3c184.1 0 172.8.4 187.4-7 21.8-10.9 34.6-31.6 34.6-55.8 0-11.5-1.4-17.9-6.3-28.2-3.2-6.7-5.7-10.1-11.7-16.1-12.5-12.4-23.1-17.3-41.5-19-20.4-2-31.1-9.8-35.2-26-3.6-14.1 3.7-30.4 16.5-36.9 7.7-3.8 11.8-4 96.7-4 90.6 0 86.9.2 91.5-6.1 1.8-2.5 2.4-4.7 2.4-8.6 0-5.6-1.8-9-6.9-12.7-2.7-2.1-3.6-2.1-88.4-2.3-72.5-.1-86.8.1-92.7 1.3z" />
  </g>
</svg>
